<svg width="1280" height="720" xmlns="http://www.w3.org/2000/svg" xmlns:xlink="http://www.w3.org/1999/xlink" overflow="hidden"><defs><clipPath id="clip0"><rect x="0" y="0" width="1280" height="720"/></clipPath></defs><g clip-path="url(#clip0)"><rect x="0" y="0" width="1280" height="720" fill="#DAE3F3"/><path d="M597.5 21.6673C597.5 10.5293 606.529 1.50005 617.667 1.50005L1256.33 1.50005C1267.47 1.50005 1276.5 10.5293 1276.5 21.6673L1276.5 102.333C1276.5 113.471 1267.47 122.5 1256.33 122.5L617.667 122.5C606.529 122.5 597.5 113.471 597.5 102.333Z" stroke="#FFFFFF" stroke-width="3" stroke-miterlimit="8" fill="#4472C4" fill-rule="evenodd" fill-opacity="0.831373"/><path d="M4.50005 22.8338C4.50005 11.6038 13.6038 2.50005 24.8338 2.50005L572.166 2.50005C583.396 2.50005 592.5 11.6038 592.5 22.8338L592.5 104.166C592.5 115.396 583.396 124.5 572.166 124.5L24.8338 124.5C13.6038 124.5 4.50005 115.396 4.50005 104.166Z" stroke="#FFFFFF" stroke-width="3" stroke-miterlimit="8" fill="#4472C4" fill-rule="evenodd" fill-opacity="0.831373"/><path d="M4.50005 149.27C4.50005 137.799 13.7991 128.5 25.2701 128.5L347.73 128.5C359.201 128.5 368.5 137.799 368.5 149.27L368.5 662.73C368.5 674.201 359.201 683.5 347.73 683.5L25.2701 683.5C13.7991 683.5 4.50005 674.201 4.50005 662.73Z" stroke="#2F528F" stroke-width="1.33333" stroke-miterlimit="8" fill="#DAE3F3" fill-rule="evenodd"/><path d="M381.5 148.599C381.5 137.499 390.499 128.5 401.599 128.5L1256.4 128.5C1267.5 128.5 1276.5 137.499 1276.5 148.599L1276.5 385.401C1276.5 396.501 1267.5 405.5 1256.4 405.5L401.599 405.5C390.499 405.5 381.5 396.501 381.5 385.401Z" stroke="#2F528F" stroke-width="1.33333" stroke-miterlimit="8" fill="#DAE3F3" fill-rule="evenodd"/><rect x="381.5" y="683.5" width="694" height="33" stroke="#2F528F" stroke-width="1.33333" stroke-miterlimit="8" fill="#BDD7EE"/><path d="M381.5 433.091C381.5 422.271 390.271 413.5 401.091 413.5L1256.91 413.5C1267.73 413.5 1276.5 422.271 1276.5 433.091L1276.5 663.909C1276.5 674.729 1267.73 683.5 1256.91 683.5L401.091 683.5C390.271 683.5 381.5 674.729 381.5 663.909Z" stroke="#2F528F" stroke-width="1.33333" stroke-miterlimit="8" fill="#DAE3F3" fill-rule="evenodd"/></g></svg>