<svg width="1280" height="720" xmlns="http://www.w3.org/2000/svg" xmlns:xlink="http://www.w3.org/1999/xlink" overflow="hidden"><defs><clipPath id="clip0"><rect x="0" y="0" width="1280" height="720"/></clipPath></defs><g clip-path="url(#clip0)"><rect x="0" y="0" width="1280" height="720" fill="#DAE3F3"/><path d="M597.5 21.6673C597.5 10.5293 606.529 1.50005 617.667 1.50005L1256.33 1.50005C1267.47 1.50005 1276.5 10.5293 1276.5 21.6673L1276.5 102.333C1276.5 113.471 1267.47 122.5 1256.33 122.5L617.667 122.5C606.529 122.5 597.5 113.471 597.5 102.333Z" stroke="#FFFFFF" stroke-width="3" stroke-miterlimit="8" fill="#4472C4" fill-rule="evenodd" fill-opacity="0.831373"/><path d="M4.50005 22.8338C4.50005 11.6038 13.6038 2.50005 24.8338 2.50005L572.166 2.50005C583.396 2.50005 592.5 11.6038 592.5 22.8338L592.5 104.166C592.5 115.396 583.396 124.5 572.166 124.5L24.8338 124.5C13.6038 124.5 4.50005 115.396 4.50005 104.166Z" stroke="#FFFFFF" stroke-width="3" stroke-miterlimit="8" fill="#4472C4" fill-rule="evenodd" fill-opacity="0.831373"/><path d="M672.5 449.835C672.5 424.245 693.245 403.5 718.834 403.5L1230.17 403.5C1255.76 403.5 1276.5 424.245 1276.5 449.835L1276.5 635.166C1276.5 660.755 1255.76 681.5 1230.17 681.5L718.834 681.5C693.245 681.5 672.5 660.755 672.5 635.166Z" stroke="#2F528F" stroke-width="1.33333" stroke-miterlimit="8" fill="#DAE3F3" fill-rule="evenodd"/><path d="M4.50005 173.001C4.50005 148.424 24.4237 128.5 49.0009 128.5L339.999 128.5C364.576 128.5 384.5 148.424 384.5 173.001L384.5 350.999C384.5 375.576 364.576 395.5 339.999 395.5L49.0009 395.5C24.4237 395.5 4.50005 375.576 4.50005 350.999Z" stroke="#2F528F" stroke-width="1.33333" stroke-miterlimit="8" fill="#DAE3F3" fill-rule="evenodd"/><path d="M4.50005 449.001C4.50005 423.319 25.3192 402.5 51.001 402.5L578.999 402.5C604.681 402.5 625.5 423.319 625.5 449.001L625.5 634.999C625.5 660.681 604.681 681.5 578.999 681.5L51.001 681.5C25.3192 681.5 4.50005 660.681 4.50005 634.999Z" stroke="#2F528F" stroke-width="1.33333" stroke-miterlimit="8" fill="#DAE3F3" fill-rule="evenodd"/><path d="M797.5 162.655C797.5 143.792 812.792 128.5 831.655 128.5L1241.35 128.5C1260.21 128.5 1275.5 143.792 1275.5 162.655L1275.5 361.345C1275.5 380.208 1260.21 395.5 1241.35 395.5L831.655 395.5C812.792 395.5 797.5 380.208 797.5 361.345Z" stroke="#2F528F" stroke-width="1.33333" stroke-miterlimit="8" fill="#DAE3F3" fill-rule="evenodd"/><rect x="301.5" y="683.5" width="695" height="36" stroke="#2F528F" stroke-width="1.33333" stroke-miterlimit="8" fill="#BDD7EE"/><rect x="626" y="396" width="46" height="60" fill="#BDD7EE"/><path d="M392.5 145.871C392.5 135.173 401.173 126.5 411.871 126.5L771.129 126.5C781.828 126.5 790.5 135.173 790.5 145.871L790.5 374.129C790.5 384.827 781.828 393.5 771.129 393.5L411.871 393.5C401.173 393.5 392.5 384.827 392.5 374.129Z" stroke="#2F528F" stroke-width="1.33333" stroke-miterlimit="8" fill="#DAE3F3" fill-rule="evenodd"/></g></svg>